<svg width="197" height="184" viewBox="0 0 197 184" fill="none" xmlns="http://www.w3.org/2000/svg">
<path d="M126.314 3.67749C121.678 3.90234 115.314 8.17749 115.314 8.17749C115.314 8.17749 99.3148 -0.322467 96.8139 1.17749C94.313 2.67745 100.518 14.1363 101.314 22.6775C101.966 29.6766 98.3148 34.6775 101.314 40.6775C104.313 46.6775 109.815 49.1775 112.814 52.6775C115.813 56.1775 118.994 59.0287 119.314 64.1775C119.525 67.581 119.315 68.1776 117.314 72.6775C115.313 77.1775 107.313 85.1775 102.313 88.1775C97.313 91.1775 92.313 93.6775 87.313 102.677C82.313 111.677 82.313 126.177 79.3139 123.677C76.3148 121.178 70.1366 102.905 64.313 94.6775C60.1651 88.8172 59.3121 85.6774 52.313 80.1775C45.3139 74.6775 42.313 72.1775 35.313 70.6775C28.313 69.1775 20.313 70.6775 15.313 72.1775C10.313 73.6775 8.31294 74.1774 4.3132 77.6775C0.313456 81.1775 0.3139 90.1775 2.31386 93.1775C4.31382 96.1775 11.5796 102.132 17.813 98.6775C22.5029 96.0788 15.813 87.6775 23.313 83.1775C30.813 78.6776 43.313 87.1775 43.313 87.1775C43.313 87.1775 50.813 91.6775 54.313 99.6775C57.813 107.677 58.0062 120.302 63.3139 131.677C68.0767 141.885 74.8138 152.177 79.3139 155.677C83.8139 159.178 101.314 162.677 106.814 163.177C112.314 163.678 126.314 161.177 129.314 160.177C132.314 159.177 138.314 160.177 141.314 160.177C144.314 160.177 145.5 160.5 150.5 159C155.5 157.5 157.002 156.579 156.5 154C156.065 151.765 148.525 152.191 147 150.5C145.42 148.748 144.317 147.713 143.5 145.5L143.395 145.217C141.228 139.347 140.757 138.069 141.314 131.677C141.717 127.054 142.814 123.177 144.314 120.178C145.814 117.178 148.314 104.177 148.314 99.1775C148.314 94.1776 147.314 90.1775 144.314 83.1775C141.314 76.1776 138.897 74.7877 137.814 68.6775C137.403 66.3624 137.092 65.0183 137.314 62.6775C137.767 57.8961 140.814 53.1775 142.814 51.6775C144.814 50.1775 151.867 46.3901 154.314 40.6775C157.086 34.206 152.719 29.6926 153.314 22.6775C153.994 14.6554 161.814 5.17745 158.314 2.67749C154.814 0.177533 145.96 8.08213 137.814 7.17749C133.148 6.65937 131.003 3.45008 126.314 3.67749Z" fill="#06210D" stroke="#06210D"/>
<path d="M156.814 32.6778C153.783 32.6183 151.814 33.1778 149.314 34.6778C146.813 36.1778 132.814 32.6777 129.314 33.6778C125.814 34.6778 137.245 40.616 139.314 46.6778C141.395 52.7761 135.723 57.827 139.314 63.1778C142.094 67.3212 146.524 66.4314 150.314 69.6778C151.991 71.115 153.326 71.7019 154.314 73.6778C155.711 76.4721 155.314 78.1779 154.314 81.6778C153.314 85.1777 148.314 90.6779 145.814 94.1778C143.314 97.6777 141.814 111.678 141.814 115.178C141.814 118.678 142.314 128.678 148.314 133.678C154.314 138.678 158.313 141.178 163.814 141.178C169.314 141.178 173.314 140.678 174.814 142.678C176.313 144.678 177.314 148.178 174.814 153.678C172.314 159.178 173.313 158.678 169.813 164.678C166.313 170.678 163.814 173.678 158.313 172.678C152.812 171.678 152.692 169.277 150.314 168.178C147.055 166.672 145.294 163.797 141.814 164.678C140.028 165.13 137.814 167.178 137.814 167.178C137.814 167.178 134.814 172.678 139.314 177.178C143.814 181.678 152.813 183.678 158.313 183.178C163.813 182.678 166.814 181.178 174.814 175.678C182.814 170.178 181.814 159.678 181.814 153.678C181.814 147.678 181.044 145.936 183.313 141.178C185.584 136.416 188.814 135.178 192.314 131.678C195.814 128.178 197.314 121.678 195.314 115.178C193.314 108.678 193.314 107.678 188.814 102.678C184.314 97.6779 178.314 94.1778 172.314 87.1778C166.314 80.1778 165.814 80.1777 165.814 76.1778C165.814 72.1779 165.313 71.762 166.814 69.6778C168.243 67.6923 168.814 68.1777 172.314 66.6778C175.814 65.1779 178.314 63.1778 179.314 59.6778C180.314 56.1778 177.048 51.8074 177.314 46.6778C177.608 40.9993 183.314 35.6779 181.314 32.6778C179.314 29.6777 171.951 37.0978 165.814 36.1778C162.084 35.6187 160.584 32.7518 156.814 32.6778Z" fill="#06210D" stroke="#06210D"/>
</svg>
